<?xml version="1.0" standalone="no"?>
<!DOCTYPE svg PUBLIC "-//W3C//DTD SVG 20010904//EN"
 "http://www.w3.org/TR/2001/REC-SVG-20010904/DTD/svg10.dtd">
<svg version="1.0" xmlns="http://www.w3.org/2000/svg"
 width="303.000000pt" height="303.000000pt" viewBox="0 0 303.000000 303.000000"
 preserveAspectRatio="xMidYMid meet">
<metadata>
Created by potrace 1.14, written by Peter Selinger 2001-2017
</metadata>
<g transform="translate(0.000000,303.000000) scale(0.100000,-0.100000)"
fill="#000000" stroke="none">
<path d="M738 2795 c-2 -2 -25 -6 -53 -9 -63 -9 -97 -17 -110 -26 -5 -4 -24
-11 -41 -14 -18 -4 -40 -16 -50 -27 -9 -10 -23 -19 -31 -19 -7 0 -16 -7 -19
-15 -3 -8 -15 -17 -26 -21 -34 -10 -91 -53 -130 -97 -32 -36 -117 -181 -120
-204 0 -5 -5 -19 -10 -33 -21 -54 -31 -127 -31 -220 1 -107 9 -153 38 -210 14
-27 25 -56 25 -64 0 -17 32 -79 43 -84 4 -2 7 -8 7 -13 0 -15 53 -79 66 -79 9
0 92 -56 104 -70 3 -4 33 -20 68 -36 34 -16 62 -32 62 -37 0 -9 44 -27 80 -33
21 -4 47 -10 83 -19 4 -2 9 -4 12 -5 3 -1 8 -3 13 -5 4 -1 14 -4 22 -8 8 -3
29 -9 45 -13 32 -8 33 -8 55 -16 16 -6 101 -31 110 -33 3 0 10 -3 15 -6 6 -4
22 -9 37 -13 15 -3 40 -11 55 -18 15 -6 30 -12 33 -12 15 -4 128 -63 144 -76
36 -29 76 -75 76 -87 0 -7 3 -13 8 -13 17 0 43 -106 42 -170 -2 -85 -5 -100
-43 -180 -32 -70 -148 -169 -215 -185 -9 -3 -37 -10 -62 -16 -67 -17 -254 -14
-320 5 -30 9 -62 18 -70 20 -41 10 -182 110 -203 143 -4 6 -13 18 -20 25 -13
13 -69 122 -74 143 -1 5 -5 23 -8 39 -3 16 -9 34 -12 38 -3 5 -6 27 -8 48 -6
76 -8 78 -73 69 -31 -5 -86 -11 -121 -14 -35 -3 -67 -8 -72 -11 -5 -3 -7 -24
-4 -47 3 -23 8 -62 10 -87 10 -88 45 -204 86 -287 24 -45 46 -83 51 -83 4 0 8
-5 8 -10 0 -36 176 -189 263 -228 60 -27 95 -40 122 -43 6 -1 21 -6 35 -11 76
-29 350 -31 460 -4 41 10 81 23 88 29 6 5 12 7 12 4 0 -14 159 72 180 98 7 8
15 15 19 15 3 0 5 -43 3 -95 -2 -71 0 -99 11 -109 20 -20 271 -20 292 0 12 12
14 99 13 554 0 298 2 543 5 546 3 3 219 7 480 8 l474 3 -1 -545 c-1 -384 2
-549 10 -560 15 -21 280 -24 297 -4 15 19 17 2388 1 2411 -10 13 -33 16 -148
15 -86 -1 -141 -5 -148 -12 -8 -8 -11 -151 -11 -490 l0 -479 -474 2 c-260 1
-476 5 -479 8 -3 3 -6 217 -6 475 0 258 -4 475 -9 483 -6 11 -39 14 -144 15
-152 2 -165 -3 -165 -62 0 -19 -2 -34 -5 -34 -2 0 -23 18 -47 40 -70 64 -225
133 -348 156 -36 6 -247 14 -252 9z m266 -356 c78 -21 138 -64 204 -144 19
-22 58 -134 67 -191 5 -27 9 -53 10 -59 1 -5 3 -15 3 -22 3 -18 34 -24 70 -14
32 10 32 9 33 -27 0 -49 0 -391 0 -420 l-1 -23 -32 25 c-40 29 -171 96 -190
96 -8 0 -18 4 -23 8 -6 5 -30 14 -55 21 -25 7 -54 17 -65 21 -11 5 -33 12 -50
16 -16 4 -32 8 -35 9 -22 6 -97 28 -105 30 -5 1 -17 4 -25 7 -8 3 -57 20 -108
37 -118 40 -256 140 -266 193 -1 7 -7 31 -13 53 -9 31 -11 140 -3 140 1 0 3 9
5 20 19 97 110 185 235 224 19 7 66 14 105 18 38 3 71 7 73 8 4 4 126 -15 166
-26z"/>
</g>
</svg>
